<?xml version="1.0" encoding="UTF-8"?>
<!-- Generator: Adobe Illustrator 25.0.1, SVG Export Plug-In . SVG Version: 6.00 Build 0)  -->
<svg width="842" height="842" version="1.0" viewBox="0 0 842 842" xml:space="preserve" xmlns="http://www.w3.org/2000/svg">
<style type="text/css">
	.st0{fill-rule:evenodd;clip-rule:evenodd;fill:#E5E9F0;}
	.st1{fill-rule:evenodd;clip-rule:evenodd;fill:#C2CCDE;}
	.st2{fill-rule:evenodd;clip-rule:evenodd;fill:#FFFFFF;stroke:#00266B;stroke-width:14.0482;stroke-linejoin:round;}
	.st3{fill-rule:evenodd;clip-rule:evenodd;fill:#00266B;}
	.st4{fill:none;stroke:#00266B;stroke-width:14.0482;stroke-linecap:square;}
</style>

<g transform="matrix(.99953 0 0 .99953 -393.03 -148.93)"><circle id="Oval" class="st0" cx="814.22" cy="570" r="421.4"/><rect x="620.57" y="350.62" width="387.3" height="98.242" fill="#5f8dd3"/><path id="Rectangle" class="st2" d="m634.62 350.62h359.2c15.5 0 28.1 12.6 28.1 28.1v306.7c0 15.5-12.6 28.1-28.1 28.1h-359.2c-15.5 0-28.1-12.6-28.1-28.1v-306.7c0-15.6 12.6-28.1 28.1-28.1z" fill="#5f8dd3" stroke="#5f8dd3" stroke-width="37.148"/><path id="Rectangle_1_" class="st3" d="m696.12 293.82h9.7c7.8 0 14 6.3 14 14v66.6c0 7.8-6.3 14-14 14h-9.7c-7.8 0-14-6.3-14-14v-66.6c0-7.7 6.2-14 14-14z" fill="#2c5aa0"/><path id="Rectangle-Copy" class="st3" d="m922.72 293.82h9.7c7.8 0 14 6.3 14 14v66.6c0 7.8-6.3 14-14 14h-9.7c-7.8 0-14-6.3-14-14v-66.6c-0.1-7.7 6.2-14 14-14z" fill="#2c5aa0"/><text x="661.79803" y="626.20392" fill="#ffffff" font-family="Optima" font-size="289.73px" stroke="#ffffff" stroke-width="4.7761" xml:space="preserve"><tspan x="661.79803" y="626.20392" fill="#ffffff" font-family="SignPainter" font-size="289.73px" stroke="#ffffff" stroke-width="4.7761">&lt;/&gt;</tspan></text><path class="st2" d="m634.62 350.62h359.2c15.5 0 28.1 12.6 28.1 28.1v18.539c0-18.539-12.6-9.739-28.1-9.739h-359.2c-15.5 0-28.1 10.481-28.1-4.1v-4.7c0-15.6 12.6-28.1 28.1-28.1z" fill="#2c5aa0" stroke="#2c5aa0" stroke-linecap="square" stroke-width="37.148" style="paint-order:markers stroke fill"/><rect x="587.94" y="384.48" width="452.55" height="27.039" fill="#2c5aa0" style="paint-order:markers stroke fill"/><text x="406.9375" y="790.15112" fill="#ffffff" font-family="SignPainter" font-size="311.94px" stroke="#ffffff" stroke-linecap="square" stroke-width="25.833" style="paint-order:markers stroke fill" xml:space="preserve"><tspan x="406.9375" y="790.15112" fill="#162d50" stroke-width="25.833">Agendai</tspan></text></g></svg>
